<svg xmlns="http://www.w3.org/2000/svg" width="21.003" height="26.494" viewBox="0 0 21.003 26.494"><defs><style>.a{fill:#fff;}</style></defs><g transform="translate(-53.056)"><g transform="translate(54.736 3.691)"><path class="a" d="M94.228,71.32a8.711,8.711,0,0,0-8.7,8.7v9.241h1.8V80.021a6.9,6.9,0,0,1,13.8,0v9.241h1.8V80.021A8.711,8.711,0,0,0,94.228,71.32Z" transform="translate(-85.527 -71.32)"/></g><g transform="translate(53.056 20.733)"><g transform="translate(0)"><path class="a" d="M73.159,400.67h-19.2a.9.9,0,0,0,0,1.8h19.2a.9.9,0,0,0,0-1.8Z" transform="translate(-53.056 -400.67)"/></g></g><g transform="translate(60.677)"><g transform="translate(0)"><path class="a" d="M203.1,0a2.76,2.76,0,1,0,2.76,2.76A2.764,2.764,0,0,0,203.1,0Zm0,3.721a.96.96,0,1,1,.96-.96A.973.973,0,0,1,203.1,3.721Z" transform="translate(-200.336)"/></g></g><g transform="translate(60.197 21.634)"><g transform="translate(0)"><path class="a" d="M195.858,418.066v1.56a1.5,1.5,0,1,1-3,0v-1.56h-1.8v1.56a3.3,3.3,0,0,0,6.6,0v-1.56Z" transform="translate(-191.057 -418.066)"/></g></g></g></svg>