<svg xmlns="http://www.w3.org/2000/svg" width="16.549" height="16.549" viewBox="0 0 16.549 16.549"><defs><style>.a{fill:#fff;}</style></defs><g transform="matrix(0.035, -0.999, 0.999, 0.035, 0, 15.99)"><g transform="translate(14.667 14.667) rotate(180)"><path class="a" d="M0,6.667A6.627,6.627,0,0,1,2.6,1.382a.485.485,0,0,1,.592.769A5.7,5.7,0,1,0,6.667.97a5.763,5.763,0,0,0-.866.065A.485.485,0,0,1,5.654.076,6.667,6.667,0,1,1,0,6.667ZM6.312,8.382,4,6.058a.5.5,0,1,1,.708-.706l1.96,1.969,1.96-1.969a.5.5,0,0,1,.709.706L7.02,8.382a.5.5,0,0,1-.708,0Z" transform="translate(0 13.333) rotate(-90)"/></g></g></svg>