<svg xmlns="http://www.w3.org/2000/svg" width="28" height="28" viewBox="0 0 28 28"><defs><style>.a{fill:#6d922c;}</style></defs><g transform="translate(26.175 23.267) rotate(180)"><path class="a" d="M0,10.906A10.841,10.841,0,0,1,4.256,2.261a.793.793,0,0,1,.968,1.257,9.321,9.321,0,1,0,5.682-1.932,9.428,9.428,0,0,0-1.416.106A.793.793,0,0,1,9.249.125,10.907,10.907,0,1,1,0,10.906Zm10.326,2.806-3.785-3.8A.818.818,0,1,1,7.7,8.756l3.206,3.221,3.207-3.221a.818.818,0,1,1,1.159,1.155l-3.787,3.8a.815.815,0,0,1-1.158,0Z" transform="translate(0 21.812) rotate(-90)"/></g></svg>