<svg xmlns="http://www.w3.org/2000/svg" width="18.115" height="19.509" viewBox="0 0 18.115 19.509">
  <path id="Lang" d="M9.058,0C4.055,0,0,4.367,0,9.754s4.055,9.754,9.058,9.754,9.058-4.367,9.058-9.754S14.058.006,9.058,0Zm7.833,13.172-2.576.479a15.6,15.6,0,0,0,.474-3.571H17.5A9.643,9.643,0,0,1,16.891,13.172ZM.608,10.08H3.326A15.6,15.6,0,0,0,3.8,13.65l-2.576-.479A9.643,9.643,0,0,1,.608,10.08Zm.616-3.742L3.8,5.859A15.6,15.6,0,0,0,3.325,9.43H.608a9.643,9.643,0,0,1,.616-3.093ZM9.359,5.221a19.33,19.33,0,0,1,3.236.318l1.064.2a14.951,14.951,0,0,1,.524,3.692H9.359ZM12.7,4.9a19.915,19.915,0,0,0-3.34-.328V.669c1.731.179,3.235,1.886,4.087,4.37ZM8.756,4.571A19.909,19.909,0,0,0,5.417,4.9l-.747.139C5.522,2.552,7.026.845,8.757.667Zm-3.237.968A19.326,19.326,0,0,1,8.755,5.22V9.429H3.929a14.951,14.951,0,0,1,.524-3.692ZM3.929,10.08H8.755v4.206a19.33,19.33,0,0,1-3.236-.318l-1.064-.2a14.951,14.951,0,0,1-.526-3.689Zm1.486,4.531a19.985,19.985,0,0,0,3.34.33v3.9c-1.731-.179-3.235-1.886-4.087-4.37Zm3.943.33a19.985,19.985,0,0,0,3.339-.33l.747-.139c-.852,2.485-2.356,4.192-4.087,4.37Zm3.236-.97a19.326,19.326,0,0,1-3.236.318V10.08h4.826a14.951,14.951,0,0,1-.524,3.692Zm2.193-4.541a15.6,15.6,0,0,0-.474-3.571l2.576.479A9.644,9.644,0,0,1,17.5,9.428Zm1.8-3.806-2.469-.456a9.072,9.072,0,0,0-2.4-4.049,8.707,8.707,0,0,1,4.871,4.5ZM6.4,1.113A9.072,9.072,0,0,0,4,5.162L1.53,5.618A8.707,8.707,0,0,1,6.4,1.113ZM1.53,13.889,4,14.345a9.072,9.072,0,0,0,2.4,4.049,8.707,8.707,0,0,1-4.871-4.5ZM11.712,18.4a9.072,9.072,0,0,0,2.4-4.049l2.469-.456a8.707,8.707,0,0,1-4.868,4.5Z" fill="#fff"/>
</svg>
