<svg xmlns="http://www.w3.org/2000/svg" width="28.724" height="28.313" viewBox="0 0 28.724 28.313">
  <path id="Path_42210" data-name="Path 42210" d="M193.027,116.928a14.363,14.363,0,0,0,3.6-28.268,1.393,1.393,0,0,0-.7,2.7,11.568,11.568,0,0,1,6.782,17.54v-.033a5.55,5.55,0,0,0-4.6-5.461,6.134,6.134,0,1,0-10.167,0,5.55,5.55,0,0,0-4.6,5.461v.033a11.568,11.568,0,0,1,6.782-17.54,1.393,1.393,0,1,0-.7-2.7,14.363,14.363,0,0,0,3.6,28.268Zm0-20.3a3.349,3.349,0,1,1-3.349,3.349A3.353,3.353,0,0,1,193.027,96.624Zm-6.9,12.24a2.76,2.76,0,0,1,2.757-2.756h8.284a2.76,2.76,0,0,1,2.756,2.756v2.992a11.55,11.55,0,0,1-13.8,0v-2.992Z" transform="translate(-178.665 -88.615)" fill="#fff"/>
</svg>
