<svg xmlns="http://www.w3.org/2000/svg" xmlns:xlink="http://www.w3.org/1999/xlink" width="27" height="27" viewBox="0 0 27 27"><defs><style>.a{fill:none;}.b{clip-path:url(#a);}.c{fill:rgba(0,0,0,0);stroke:#000;stroke-linecap:square;stroke-miterlimit:10;}</style><clipPath id="a"><rect class="a" width="27" height="27"/></clipPath></defs><g class="b"><path class="c" d="M13.279,13.558h0A6.015,6.015,0,0,1,7,7.85V6.708A6.015,6.015,0,0,1,13.279,1h0a6.015,6.015,0,0,1,6.279,5.708V7.85A6.015,6.015,0,0,1,13.279,13.558Z" transform="translate(0.221 -0.058)"/><path class="c" d="M27.116,21.6a4.646,4.646,0,0,0-3.685-4.4A38.072,38.072,0,0,0,14.558,16a38.072,38.072,0,0,0-8.874,1.2A4.646,4.646,0,0,0,2,21.6v2.388H27.116Z" transform="translate(-1.058 2.067)"/></g></svg>