<svg xmlns="http://www.w3.org/2000/svg" width="99.83" height="90.284" viewBox="0 0 99.83 90.284">
  <g id="all" transform="translate(-119.393 -18.716)">
    <g id="shopping-cart" transform="translate(119.393 18.716)">
      <path id="Path_7" data-name="Path 7" d="M386.9,421.8a.9.9,0,1,0-.9-.9A.9.9,0,0,0,386.9,421.8Zm0,0" transform="translate(-351.177 -382.109)" fill="#81ad40"/>
      <path id="Path_8" data-name="Path 8" d="M220.9,421.8a.9.9,0,1,0-.9-.9A.9.9,0,0,0,220.9,421.8Zm0,0" transform="translate(-200.152 -382.109)" fill="#81ad40"/>
      <path id="Path_9" data-name="Path 9" d="M46,11.173a.9.9,0,0,0-.711-.347H12.81l-2.056-8.74A2.7,2.7,0,0,0,8.12,0H2.707a2.706,2.706,0,0,0,0,5.413H5.976L12.7,34a2.7,2.7,0,0,0,2.635,2.086h1.807a4.511,4.511,0,1,0,7.212,0H32.12a4.511,4.511,0,1,0,7.212,0h0a2.706,2.706,0,0,0,0-5.413H17.481l-.849-3.609h23.64a2.7,2.7,0,0,0,2.626-2.05l3.267-13.068A.9.9,0,0,0,46,11.173Zm-3.22,6.87H37.018l.677-5.413h6.438Zm-10.663,1.8h2.857L34.3,25.261H29.411V22.554a.9.9,0,0,0-1.8,0v2.706H22.719l-.677-5.413H24.9a.9.9,0,1,0,0-1.8H21.817l-.677-5.413h6.466v2.706a.9.9,0,0,0,1.8,0V12.631h6.466L35.2,18.044H32.117a.9.9,0,1,0,0,1.8Zm-15.91,5.413-1.274-5.413h5.291l.677,5.413Zm3.115-12.63L20,18.044h-5.49l-1.273-5.413Zm4.134,26.163a2.706,2.706,0,1,1-2.706-2.706A2.709,2.709,0,0,1,23.456,38.793Zm14.976,0a2.706,2.706,0,1,1-2.706-2.706A2.709,2.709,0,0,1,38.432,38.793Zm.9-6.315a.9.9,0,0,1,0,1.8h-24a.9.9,0,0,1-.878-.7L7.4,3.609h-4.7a.9.9,0,0,1,0-1.8H8.12A.9.9,0,0,1,9,2.5l5.61,23.844v0l1.442,6.13Zm1.812-7.9a.9.9,0,0,1-.876.684H36.116l.677-5.413h5.536Zm0,0" transform="translate(0 0)" fill="#81ad40"/>
      <path id="Path_10" data-name="Path 10" d="M306.9,200a.9.9,0,1,0,.9.9A.9.9,0,0,0,306.9,200Zm0,0" transform="translate(-278.394 -181.957)" fill="#81ad40"/>
    </g>
    <g id="box" transform="translate(176.285 37.627)">
      <path id="Path_11" data-name="Path 11" d="M246.839,352a.839.839,0,1,0,.839.839A.839.839,0,0,0,246.839,352Zm0,0" transform="translate(-225.37 -322.481)" fill="#81ad40"/>
      <path id="Path_12" data-name="Path 12" d="M42.937,16.945a.839.839,0,0,0-.475-.761L28.541,9.476a.839.839,0,0,0-.739.005l-2.979,1.49V.838A.839.839,0,0,0,23.984,0H18.953a.839.839,0,0,0-.839.839V10.971l-2.979-1.49a.839.839,0,0,0-.739-.005L.475,16.184A.838.838,0,0,0,.485,17.7l5.577,2.594L.485,22.888A.838.838,0,0,0,.475,24.4l6.737,3.247v7.738a.838.838,0,0,0,.464.75l13.418,6.709.024.01.039.017c.021.009.042.016.064.023l.038.011c.023.006.047.01.07.014l.035.006a.842.842,0,0,0,.1.007h.011a.841.841,0,0,0,.107-.008l.027,0c.026,0,.052-.009.078-.016l.035-.01c.023-.007.045-.015.067-.024l.038-.016.022-.01L35.261,36.14a.839.839,0,0,0,.464-.75V27.652L42.462,24.4a.839.839,0,0,0-.01-1.516l-5.577-2.594L42.452,17.7a.838.838,0,0,0,.485-.755ZM19.791,1.677h3.354V13.585a.839.839,0,0,0,.839.839h.839L21.468,18.9,18.48,14.912l-.366-.488h.839a.839.839,0,0,0,.839-.839Zm1.677,24.389L9.926,20.294l7.632-3.816L20.8,20.8a.839.839,0,0,0,1.342,0l3.239-4.319,7.632,3.816Zm-6.716-14.9,3.163,1.582H16.437a.839.839,0,0,0-.671,1.342l.769,1.026-8.5,4.249L2.8,16.926ZM8.038,21.225,19.593,27l-4.841,2.42L2.8,23.662Zm26.01,13.646-11.741,5.87V33.712a.839.839,0,0,0-1.677,0v7.029L8.889,34.871V28.459L14.4,31.113a.84.84,0,0,0,.739-.005l6.334-3.167L27.8,31.108a.839.839,0,0,0,.739.005l5.506-2.654Zm-5.863-5.447L23.344,27,34.9,21.225l5.239,2.437ZM34.9,19.363l-8.5-4.249.769-1.026a.838.838,0,0,0-.671-1.341H25.021l3.163-1.582,11.955,5.762Zm0,0" transform="translate(0 0)" fill="#81ad40"/>
    </g>
    <g id="call-center" transform="translate(137.608 71.451)">
      <path id="Path_13" data-name="Path 13" d="M260.764,221.467a.733.733,0,1,0-.733-.733A.734.734,0,0,0,260.764,221.467Zm0,0" transform="translate(-240.961 -203.865)" fill="#81ad40"/>
      <path id="Path_14" data-name="Path 14" d="M160.764,221.467a.733.733,0,1,0-.733-.733A.734.734,0,0,0,160.764,221.467Zm0,0" transform="translate(-148.295 -203.865)" fill="#81ad40"/>
      <path id="Path_15" data-name="Path 15" d="M0,35.206v1.61a.733.733,0,0,0,.733.733h30.8a.733.733,0,0,0,.733-.733V35.2a6.993,6.993,0,0,0-4.67-6.719,5.145,5.145,0,0,0,1.762-3.875.734.734,0,0,0-.733-.733,3.7,3.7,0,0,1-3.609-2.9h2.12a2.2,2.2,0,0,0,2.2-2.2V15.4a2.2,2.2,0,0,0-1.467-2.074V11.734a11.734,11.734,0,0,0-23.468,0v1.594A2.205,2.205,0,0,0,2.933,15.4v3.374a2.2,2.2,0,0,0,2.2,2.2H7.251a3.7,3.7,0,0,1-3.605,2.9.734.734,0,0,0-.733.733A5.146,5.146,0,0,0,4.679,28.49,7.042,7.042,0,0,0,0,35.206Zm27.832-9.923a3.675,3.675,0,0,1-2.257,2.743l-4.443-.577-.475-1.855a8.771,8.771,0,0,0,3.229-3.372,5.185,5.185,0,0,0,3.946,3.062ZM22.015,13.2a3.7,3.7,0,0,1-3.674-3.72.733.733,0,0,0-1.467,0A3.7,3.7,0,0,1,13.2,13.2H8.8a7.334,7.334,0,0,1,14.668,0ZM8.8,14.668h4.4a5.135,5.135,0,0,0,4.408-2.52,5.134,5.134,0,0,0,4.408,2.52h1.454v3.374a7.334,7.334,0,0,1-14.668,0Zm4.174,11.589a8.831,8.831,0,0,0,6.336-.006l.466,1.821a3.667,3.667,0,0,1-7.266,0Zm14.894-7.482a.733.733,0,0,1-.731.733h-2.2v-4.84h2.2a.733.733,0,0,1,.731.733ZM16.137,1.467A10.278,10.278,0,0,1,26.4,11.734V13.2H24.937a8.8,8.8,0,0,0-17.6,0H5.867V11.734A10.264,10.264,0,0,1,16.137,1.467ZM4.4,18.775V15.4a.736.736,0,0,1,.736-.733h2.2v4.84h-2.2a.735.735,0,0,1-.736-.733Zm3.984,3.445A8.859,8.859,0,0,0,11.629,25.6l-.472,1.849L6.7,28.027a3.678,3.678,0,0,1-2.26-2.744,5.182,5.182,0,0,0,3.944-3.064Zm-1.761,7.3.081-.01h0l4.483-.582a5.135,5.135,0,0,0,9.909,0l4.565.593A5.618,5.618,0,0,1,30.8,35.2v.878H1.467v-.876a5.659,5.659,0,0,1,5.157-5.69Zm0,0" transform="translate(0 0)" fill="#81ad40"/>
      <path id="Path_16" data-name="Path 16" d="M187.979,291.084a4.612,4.612,0,0,0,3.883.018.733.733,0,0,0-.612-1.333,3.146,3.146,0,0,1-2.646-.011.733.733,0,0,0-.625,1.327Zm0,0" transform="translate(-173.803 -268.441)" fill="#81ad40"/>
      <path id="Path_17" data-name="Path 17" d="M300.764,447.467H303.7a.733.733,0,0,0,0-1.467h-2.934a.733.733,0,1,0,0,1.467Zm0,0" transform="translate(-278.027 -413.291)" fill="#81ad40"/>
      <path id="Path_18" data-name="Path 18" d="M380.733,446a.733.733,0,1,1-.733.733A.734.734,0,0,1,380.733,446Zm0,0" transform="translate(-352.131 -413.291)" fill="#81ad40"/>
    </g>
  </g>
</svg>
