<svg id="bfca906c-99b8-404f-8212-00e58e6958e5" data-name="Layer 1" xmlns="http://www.w3.org/2000/svg" viewBox="0 0 196 206">
  <defs>
    <style>
      .ed794178-73d7-422a-90c8-888f5079c0ad {
        fill: #35793c;
      }
    </style>
  </defs>
  <g>
    <path class="ed794178-73d7-422a-90c8-888f5079c0ad" d="M130.63,86.91l-7.26-7.5,1.47-10.33a3,3,0,0,0-2.42-3.33L112.14,64l-4.89-9.22a3,3,0,0,0-3.91-1.27L94,58l-9.37-4.58a3,3,0,0,0-3.91,1.27L75.79,64l-10.28,1.8a3,3,0,0,0-2.42,3.33l1.46,10.33-7.25,7.5a3,3,0,0,0,0,4.11l7.25,7.5-1.46,10.34a3,3,0,0,0,2.42,3.33l8.22,1.44v32a3,3,0,0,0,1.41,2.51,2.88,2.88,0,0,0,1.55.45,3,3,0,0,0,1.33-.32l15.94-8,16,8a3,3,0,0,0,4.28-2.64v-32l8.23-1.45a3,3,0,0,0,2.42-3.32l-1.46-10.34,7.25-7.5A3,3,0,0,0,130.63,86.91ZM95.29,134.34a2.94,2.94,0,0,0-2.65,0l-13,6.49V121.27l1,1.93a3,3,0,0,0,3.91,1.28L94,119.89l9.38,4.59a3,3,0,0,0,3.91-1.28l1-1.93v19.56Zm22.83-38.89a3,3,0,0,0-.81,2.47l1.27,8.93-8.88,1.56a3,3,0,0,0-2.11,1.53l-4.23,8-8.1-4a3,3,0,0,0-1.3-.3,3,3,0,0,0-1.3.3l-8.1,4-4.23-8a2.94,2.94,0,0,0-2.1-1.53l-8.88-1.56,1.26-8.93a3,3,0,0,0-.8-2.47L63.54,89l6.27-6.49a3,3,0,0,0,.8-2.47l-1.26-8.93,8.88-1.55A3,3,0,0,0,80.34,68l4.22-8,8.11,4a3,3,0,0,0,2.59,0l8.1-4,4.23,8a3,3,0,0,0,2.11,1.53l8.88,1.55L117.31,80a3,3,0,0,0,.81,2.47L124.39,89Z"/>
    <path class="ed794178-73d7-422a-90c8-888f5079c0ad" d="M94,68.74A20.23,20.23,0,1,0,114.19,89,20.25,20.25,0,0,0,94,68.74Zm0,34.54A14.32,14.32,0,1,1,108.28,89,14.33,14.33,0,0,1,94,103.28Z"/>
    <path class="ed794178-73d7-422a-90c8-888f5079c0ad" d="M100,81.46,91.26,90.2l-3.33-3.32a3,3,0,0,0-4.18,4.18l5.42,5.41a2.92,2.92,0,0,0,2.09.87,3,3,0,0,0,2.09-.87l10.83-10.82A3,3,0,0,0,100,81.46Z"/>
  </g>
</svg>
