<svg xmlns="http://www.w3.org/2000/svg" width="75.501" height="75.5" viewBox="0 0 75.501 75.5">
  <g id="box" transform="translate(0 0)">
    <path id="Path_11" data-name="Path 11" d="M247.475,352a1.475,1.475,0,1,0,1.475,1.475A1.475,1.475,0,0,0,247.475,352Zm0,0" transform="translate(-209.724 -300.093)" fill="#81ad40"/>
    <path id="Path_12" data-name="Path 12" d="M75.5,29.8a1.475,1.475,0,0,0-.835-1.338l-24.479-11.8a1.475,1.475,0,0,0-1.3.009l-5.239,2.62V1.474A1.475,1.475,0,0,0,42.174,0H33.326a1.475,1.475,0,0,0-1.475,1.475V19.291l-5.239-2.62a1.475,1.475,0,0,0-1.3-.009L.835,28.459a1.474,1.474,0,0,0,.018,2.665l9.807,4.562L.853,40.247a1.474,1.474,0,0,0-.018,2.665l11.847,5.71V62.229a1.474,1.474,0,0,0,.815,1.319l23.594,11.8c.014.007.028.012.042.018s.045.02.068.029.074.028.112.04.044.014.067.02c.041.01.082.018.123.025l.062.011a1.479,1.479,0,0,0,.167.012h.02a1.479,1.479,0,0,0,.188-.013l.047-.008c.046-.007.092-.017.138-.029l.062-.018c.04-.012.078-.026.118-.041l.067-.029.039-.017L62,63.548a1.475,1.475,0,0,0,.815-1.319V48.622l11.847-5.71a1.475,1.475,0,0,0-.018-2.666l-9.807-4.562,9.807-4.562A1.474,1.474,0,0,0,75.5,29.8ZM34.8,2.949h5.9v20.94a1.475,1.475,0,0,0,1.475,1.475h1.475l-5.9,7.865-5.256-7.007-.643-.858h1.475A1.475,1.475,0,0,0,34.8,23.889ZM37.75,45.834l-20.3-10.148,13.42-6.71,5.7,7.595a1.475,1.475,0,0,0,2.359,0l5.7-7.595,13.42,6.71Zm-11.809-26.2L31.5,22.414H28.9a1.474,1.474,0,0,0-1.18,2.359l1.353,1.8L14.133,34.049,4.92,29.763ZM14.133,37.323l20.32,10.16-8.512,4.256L4.92,41.608ZM59.87,61.317,39.225,71.639V59.279a1.475,1.475,0,0,0-2.949,0v12.36L15.631,61.317V50.043l9.682,4.666a1.477,1.477,0,0,0,1.3-.009L37.75,49.131,48.888,54.7a1.475,1.475,0,0,0,1.3.009l9.682-4.666Zm-10.31-9.579-8.512-4.256,20.32-10.16,9.213,4.285Zm11.808-17.69L46.425,26.577l1.353-1.8a1.474,1.474,0,0,0-1.18-2.359H44l5.562-2.782L70.58,29.763Zm0,0" transform="translate(0 0)" fill="#81ad40"/>
  </g>
</svg>
