<svg id="chart-bar-33" xmlns="http://www.w3.org/2000/svg" width="39.72" height="39.72" viewBox="0 0 39.72 39.72">
  <path id="Path_624" data-name="Path 624" d="M20.689,17H13.241A1.242,1.242,0,0,0,12,18.241V34.377a1.242,1.242,0,0,0,1.241,1.241h7.447a1.242,1.242,0,0,0,1.241-1.241V18.241A1.242,1.242,0,0,0,20.689,17Z" transform="translate(2.895 4.101)" fill="#c2d63b"/>
  <path id="Path_625" data-name="Path 625" d="M8.689,23H1.241A1.242,1.242,0,0,0,0,24.241V32.93a1.242,1.242,0,0,0,1.241,1.241H8.689A1.242,1.242,0,0,0,9.93,32.93V24.241A1.242,1.242,0,0,0,8.689,23Z" transform="translate(0 5.549)" fill="#c2d63b"/>
  <path id="Path_626" data-name="Path 626" d="M32.689,11H25.241A1.242,1.242,0,0,0,24,12.241V35.825a1.242,1.242,0,0,0,1.241,1.241h7.447a1.242,1.242,0,0,0,1.241-1.241V12.241A1.242,1.242,0,0,0,32.689,11Z" transform="translate(5.79 2.654)" fill="#c2d63b"/>
  <path id="Path_627" data-name="Path 627" d="M18.583,14.895a1.238,1.238,0,0,0,.878-.364L29.754,4.238V9.93h2.482V1.241A1.242,1.242,0,0,0,31,0H22.307V2.482H28L18.583,11.9,13.254,6.57a1.24,1.24,0,0,0-1.755,0L5.293,12.776l1.755,1.755L12.377,9.2l5.329,5.329A1.238,1.238,0,0,0,18.583,14.895Z" transform="translate(1.277)" fill="#c2d63b"/>
</svg>
