<svg xmlns="http://www.w3.org/2000/svg" width="76.941" height="76.965" viewBox="0 0 76.941 76.965">
  <g id="hand" transform="translate(0 0)">
    <path id="Path_19" data-name="Path 19" d="M221.29,332.76a1.5,1.5,0,1,0-2.126,0A1.505,1.505,0,0,0,221.29,332.76Zm0,0" transform="translate(-185.921 -280.558)" fill="#81ad40"/>
    <path id="Path_20" data-name="Path 20" d="M188.449,16.531A16.531,16.531,0,1,0,204.98,0,16.55,16.55,0,0,0,188.449,16.531Zm30.056,0A13.526,13.526,0,1,1,204.98,3.006,13.541,13.541,0,0,1,218.505,16.531Zm0,0" transform="translate(-160.196 0)" fill="#81ad40"/>
    <path id="Path_21" data-name="Path 21" d="M17.811,256.923a1.5,1.5,0,0,0,2.121.012l7.286-7.178a4.541,4.541,0,0,0,1.07-4.664l1.567-1.511a4.482,4.482,0,0,1,3.129-1.264H52.963a13.455,13.455,0,0,0,9.434-3.833c.1-.1-.793.956,13.63-16.282a6.011,6.011,0,0,0-9.147-7.8l-8.868,9.115a6.04,6.04,0,0,0-4.672-2.237H36.58a19.388,19.388,0,0,0-7.526-1.5c-7.237,0-13.556,3.342-16.947,9.609a4.489,4.489,0,0,0-4.019,1.245L.94,237.8a1.5,1.5,0,0,0,0,2.12Zm11.243-34.142a16.406,16.406,0,0,1,6.616,1.377,1.5,1.5,0,0,0,.6.126H53.338a3.006,3.006,0,1,1,0,6.011H41.077a1.5,1.5,0,0,0,0,3.005H53.338a6,6,0,0,0,5.958-6.8c8.578-8.818,9.788-10.057,9.84-10.119a3.006,3.006,0,1,1,4.59,3.884L60.247,236.384a10.465,10.465,0,0,1-7.284,2.93H32.984a7.472,7.472,0,0,0-5.217,2.107l-1.277,1.233L14.717,230.88c2.752-5.162,7.915-8.1,14.337-8.1Zm-18.839,9.973a1.5,1.5,0,0,1,1.861-.211c.26.159-.487-.521,13.016,12.963a1.506,1.506,0,0,1,.008,2.118l-6.211,6.119L4.123,238.865Zm0,0" transform="translate(-0.501 -180.402)" fill="#81ad40"/>
    <path id="Path_22" data-name="Path 22" d="M268.889,41.492v1.761a4.508,4.508,0,0,0,1.5,8.759,1.5,1.5,0,1,1,0,3.005,2.718,2.718,0,0,1-1.951-1.137,1.5,1.5,0,1,0-2.3,1.934,6.233,6.233,0,0,0,2.749,1.957v1.754a1.5,1.5,0,0,0,3.005,0V57.764a4.508,4.508,0,0,0-1.5-8.759,1.5,1.5,0,0,1,0-3.006,2.413,2.413,0,0,1,1.625.786,1.5,1.5,0,0,0,2.09-2.16,5.806,5.806,0,0,0-2.213-1.383v-1.75a1.5,1.5,0,1,0-3.005,0Zm0,0" transform="translate(-225.908 -33.977)" fill="#81ad40"/>
  </g>
</svg>
