<svg xmlns="http://www.w3.org/2000/svg" width="33.308" height="22.206" viewBox="0 0 33.308 22.206">
  <path id="Icon_awesome-eye" data-name="Icon awesome-eye" d="M33.107,14.759A18.547,18.547,0,0,0,16.654,4.5,18.55,18.55,0,0,0,.2,14.759a1.871,1.871,0,0,0,0,1.688A18.547,18.547,0,0,0,16.654,26.706,18.55,18.55,0,0,0,33.107,16.447,1.871,1.871,0,0,0,33.107,14.759ZM16.654,23.93A8.327,8.327,0,1,1,24.981,15.6,8.327,8.327,0,0,1,16.654,23.93Zm0-13.879a5.512,5.512,0,0,0-1.464.219,2.767,2.767,0,0,1-3.869,3.869,5.539,5.539,0,1,0,5.332-4.088Z" transform="translate(0 -4.5)" fill="#232323"/>
</svg>
