<svg xmlns="http://www.w3.org/2000/svg" width="22.805" height="22.847" viewBox="0 0 22.805 22.847">
  <path id="phone" d="M22.415,17.232v3.063a2.042,2.042,0,0,1-2.226,2.042A20.2,20.2,0,0,1,11.38,19.2a19.907,19.907,0,0,1-6.125-6.125A20.2,20.2,0,0,1,2.12,4.226,2.042,2.042,0,0,1,4.152,2H7.214A2.042,2.042,0,0,1,9.256,3.756a13.108,13.108,0,0,0,.715,2.869,2.042,2.042,0,0,1-.459,2.154l-1.3,1.3A16.334,16.334,0,0,0,14.34,16.2l1.3-1.3a2.042,2.042,0,0,1,2.154-.459,13.108,13.108,0,0,0,2.869.715A2.042,2.042,0,0,1,22.415,17.232Z" transform="translate(-0.861 -0.75)" fill="none" stroke="#81ad40" stroke-linecap="square" stroke-width="2.5"/>
</svg>
