<svg id="afd6e2b9-2242-4526-a6f3-9fc6982fc66a" data-name="Layer 1" xmlns="http://www.w3.org/2000/svg" viewBox="0 0 82.77 83.77">
  <defs>
    <style>
      .a2fa88d6-d520-4f3d-a62d-1700efa4ea98 {
        fill: none;
      }

      .e58afbaa-b0e7-4a4f-91d8-b624ca8d6069 {
        fill: #86bd05;
      }

      .b441a657-652a-4800-bbc1-24052b7d9a14 {
        fill: #fcfdfa;
      }

      .ac7276b9-fbdf-45e2-bf49-207dfcfdd8af {
        fill: #f4f9e9;
      }

      .ed7d13e2-2b4d-4b2f-b577-30a46d821b53 {
        fill: #ecf4da;
      }

      .a614fa3c-0ee7-46c8-94a6-5e0492092e7d {
        fill: #8ac00f;
      }

      .e0d31634-4f8d-4383-bb98-efc66d131925 {
        fill: #83bc01;
      }

      .a7d2b2ef-59bc-47f5-88a3-5839d40a3ff7 {
        fill: #8bc00f;
      }

      .a6a25438-2681-4f5c-bc66-71216e0c00e0 {
        fill: #89bf0c;
      }

      .ffd3b418-7ae3-462b-b2f9-bee2cf005f57 {
        fill: #89bf0b;
      }

      .ff80a956-c4b8-4f13-8f50-dd7352598d66 {
        fill: #b0d45d;
      }

      .afedded1-d093-46eb-9a3e-2fb915aff700 {
        fill: #b1d560;
      }

      .be50cf1d-b0ce-41c4-b72b-dd4db7e9e28f {
        fill: #88bf0a;
      }

      .a92ded27-e93d-49c5-a494-68cb7be3eab0 {
        fill: #8bc010;
      }

      .ad6b6843-fe82-458e-98c9-e61ce51b9d2f {
        fill: #93c521;
      }
    </style>
  </defs>
  <g>
    <path class="a2fa88d6-d520-4f3d-a62d-1700efa4ea98" d="M110.74,32h.31a1.15,1.15,0,0,0-.4-.79A1.32,1.32,0,0,1,110.74,32Z" transform="translate(-31.9 -31.17)"/>
    <path class="e58afbaa-b0e7-4a4f-91d8-b624ca8d6069" d="M76.9,91.46c.39-2,.68-4.43-2.83-4.45-2.91,0-3.66-1.75-1.67-3.85,3.25-3.41-.42-4.64-2-6.2s-2.55-5-5.8-1.94c-2.28,2.12-3.94,1.5-4.14-1.72-.28-4.47-3.67-2.88-6-3-2.05-.09-4.92-1.12-5.06,2.78-.14,3.67-1.83,3.77-4.47,1.77-3.77-2.88-4.57,1.6-6.5,3C36.9,79,34.78,80.47,37.29,83c2.34,2.34,1.37,3.74-1.66,4-1,.11-2,.09-2.73.91h0l.15,9.93c3.42.75,8,.29,3.5,6.2-1.67,2.17,2.61,3.9,4.08,5.88.76,1,1.88,2.79,3.58,1.36,5.73-4.86,4.89.61,5.68,3.55h10c1.53-1.54-.7-7.92,4.71-4.23,3.23,2.21,4.28,0,5.48-1.57,1.39-1.82,5.8-2.77,2.41-6.57-1.8-2-1.24-3.77,1.6-4.09C79.25,97.82,76.43,93.89,76.9,91.46Zm-4.41,4.29c-4.26,1.07-5.39,3.85-3.12,7.61,1,1.64.13,2.39-.79,3.36s-1.78,1.36-3.36.48c-3.4-1.87-6.3-.89-7.37,3-.44,1.62-1,2.29-2.55,2.27s-2.73,0-3.22-2.13c-.93-4-4-4.93-7.32-3.17-1.88,1-2.65.3-3.78-.72s-1.15-1.93-.26-3.38c2.07-3.37.5-6.06-2.75-7.21-1.86-.66-2.31-1.39-2.32-3.05s.55-2.32,2.34-3c3.18-1.19,4.87-3.94,2.73-7.24-1.18-1.82-.52-2.64.62-3.74,1-.95,1.66-1.62,3.29-.55,3.48,2.29,6.23.76,7.4-2.83.61-1.88,1.4-2.28,3.07-2.33,1.89-.06,2.38.72,2.77,2.55A4.87,4.87,0,0,0,65,78.55c3.58-2.48,3.4,1.36,5.23,2.25a9.7,9.7,0,0,0-1.38,1.91c-1.2,3.38-.5,6.23,3.19,7.17,2,.5,2.42,1.32,2.38,3C74.42,94.29,74.28,95.3,72.49,95.75Z" transform="translate(-31.9 -31.17)"/>
    <path class="b441a657-652a-4800-bbc1-24052b7d9a14" d="M43.73,112.13c-2.8,1.1-9.26-4.95-8.07-7.55,1.79-3.9-.28-5.16-2.76-6.68l-.94,0c0,5,.1,10-.05,14.94-.06,1.74.31,2.1,2.05,2.05,5.3-.15,10.62-.05,15.93-.05C48.5,112.5,47.24,110.76,43.73,112.13Z" transform="translate(-31.9 -31.17)"/>
    <path class="b441a657-652a-4800-bbc1-24052b7d9a14" d="M44.21,111.33c-1.7,1.43-2.82-.33-3.58-1.36-1.47-2-5.75-3.71-4.08-5.88,4.53-5.91-.08-5.45-3.5-6.2H32.9c2.48,1.52,4.55,2.78,2.76,6.68-1.19,2.6,5.27,8.65,8.07,7.55,3.51-1.37,4.77.37,6.16,2.75C49.1,111.94,49.94,106.47,44.21,111.33Z" transform="translate(-31.9 -31.17)"/>
    <path class="ac7276b9-fbdf-45e2-bf49-207dfcfdd8af" d="M110.65,31.17a1.15,1.15,0,0,1,.4.79c2.28.44,2.8,2.41,3.6,4.14" transform="translate(-31.9 -31.17)"/>
    <path class="ed7d13e2-2b4d-4b2f-b577-30a46d821b53" d="M32.69,97.77a.38.38,0,0,1-.13-.19.67.67,0,0,0-.6.36l.94,0Z" transform="translate(-31.9 -31.17)"/>
    <path class="ed7d13e2-2b4d-4b2f-b577-30a46d821b53" d="M32.69,97.77l.21.13h.15a.78.78,0,0,0-.49-.31A.38.38,0,0,0,32.69,97.77Z" transform="translate(-31.9 -31.17)"/>
    <path class="a614fa3c-0ee7-46c8-94a6-5e0492092e7d" d="M113.16,41.06a8.49,8.49,0,0,1,.82-4.35,1.41,1.41,0,0,1,.63-.59c-1.87-.8-2.81-2.39-3.56-4.16h-.31a1.17,1.17,0,0,1-.69.8c-5.77.84-11.57.34-17.35.37-14.75.08-29.49,0-44.23,0-1.93,0-4,.58-5.69-1-3,1-3.05,3.58-3.05,6.13,0,9.3,0,18.59.05,27.89,0,1.39-1,4,1.52,3.84,2.24-.14,1.31-2.68,1.33-4.16.08-9,.14-17.93,0-26.9-.06-3.65,1.28-4.94,5-4.92q29.61.19,59.24,0c3.75,0,4.9,1.43,4.88,5q-.18,25.91,0,51.8c0,3.73-1.5,5-5.06,4.93-8-.13-15.93-.06-23.89,0-1,0-2.66-.56-2.8,1.15-.18,2.14,1.69,1.61,2.86,1.62,8.29.05,16.59,0,24.89,0,3.35,0,5.73-1.39,7-4.57-1.52-1.39-1.49-3.25-1.49-5.08Q113.13,65,113.16,41.06Z" transform="translate(-31.9 -31.17)"/>
    <path class="a614fa3c-0ee7-46c8-94a6-5e0492092e7d" d="M48.47,33.13c14.74,0,29.48.08,44.23,0,5.78,0,11.58.47,17.35-.37a1.17,1.17,0,0,0,.69-.8l-68,.15C44.45,33.71,46.54,33.12,48.47,33.13Z" transform="translate(-31.9 -31.17)"/>
    <path class="a614fa3c-0ee7-46c8-94a6-5e0492092e7d" d="M114.61,36.12a1.41,1.41,0,0,0-.63.59,8.49,8.49,0,0,0-.82,4.35q0,23.91,0,47.81c0,1.83,0,3.69,1.49,5.08V36.15Z" transform="translate(-31.9 -31.17)"/>
    <path class="a614fa3c-0ee7-46c8-94a6-5e0492092e7d" d="M114.61,36.12l0,0c-.8-1.73-1.32-3.7-3.6-4.14C111.8,33.73,112.74,35.32,114.61,36.12Z" transform="translate(-31.9 -31.17)"/>
    <path class="e0d31634-4f8d-4383-bb98-efc66d131925" d="M45.47,44c.16,2.1,2.41,1.14,3.69,1.16,9.3.09,18.59,0,27.88,0s18.59,0,27.88,0c1.28,0,3.52,1,3.66-1.2s-2.13-1.53-3.42-1.53q-28.12-.09-56.26,0C47.58,42.44,45.3,41.79,45.47,44Z" transform="translate(-31.9 -31.17)"/>
    <path class="a7d2b2ef-59bc-47f5-88a3-5839d40a3ff7" d="M45.19,56.82c-.17,9.38-.07,9.38,9.48,9.38,2.32,0,4.64,0,7,0,1,0,2.36.14,2.67-.86,1.13-3.7.8-7.6.3-11.3-.41-3-3.49-1.53-5.43-1.82-1.14-.17-2.35,0-3.21-1-2.65-3-6.33-2.49-9.23-1.51C43.58,50.77,45.24,54.38,45.19,56.82Zm2.92-3c1.1-2.92,3.82-1.79,5.63-.56,1.54,1.06,2.9,2.14,4.87,1.85,3.8-.54,3.14,2.11,3.28,4.39.16,2.57-.4,4.18-3.45,3.82a32.51,32.51,0,0,0-3.95,0C48.25,63.28,45.8,59.93,48.11,53.81Z" transform="translate(-31.9 -31.17)"/>
    <path class="a6a25438-2681-4f5c-bc66-71216e0c00e0" d="M103,52.21a4.45,4.45,0,0,1-2.69-1c-2.68-2.93-6.39-2.5-9.26-1.43s-1.35,4.69-1.4,7.14c-.18,9.3-.07,9.31,9.43,9.3,2.32,0,4.64,0,7,0,1,0,2.42,0,2.49-1.07.23-3.79.66-7.68,0-11.37C108.07,50.85,104.93,52.62,103,52.21Zm3.36,8.39c-.51,4.58-5.44,2.61-6,2.68a8,8,0,0,1-1,0c-6.9,0-8.73-2.3-6.84-9.14.92-3.37,3.47-2,5.47-1.12,1.14.51,1.86,1.27,3.25,2C105.46,57.15,106.81,56.58,106.36,60.6Z" transform="translate(-31.9 -31.17)"/>
    <path class="a6a25438-2681-4f5c-bc66-71216e0c00e0" d="M76.77,66.19c10.08,0,9.87,0,10.13-8.77.12-4.09-1-5.88-5.24-5.25A3.93,3.93,0,0,1,78,51.07c-2.72-2.91-6.45-2.35-9.28-1.28-2.57,1-1.17,4.48-1.21,6.84C67.39,66.19,67.47,66.19,76.77,66.19ZM70.12,54.1c1-3.35,3.57-1.9,5.58-1.14,1.17.45,1.85,2.25,3.24,2,4.84-.79,5.47,1.8,5.07,5.68-.48,4.65-4,1.84-6.06,2.63a2.92,2.92,0,0,1-1,0C70.13,63.3,68.18,60.85,70.12,54.1Z" transform="translate(-31.9 -31.17)"/>
    <path class="ffd3b418-7ae3-462b-b2f9-bee2cf005f57" d="M100,88.79c2.21-.51,6.16,1.45,7.88-.79,2.42-3.15,1-7.65.78-11.52-.2-3-3.09-1.56-4.83-1.81-1.34-.18-2.61-.25-3.67-1.22-2.84-2.59-6.52-2.13-9.38-1.08-2.58.94-1.12,4.43-1.16,6.75C89.5,88.78,89.58,88.79,100,88.79Zm-7.62-8c0-7.13.92-7.64,6.67-4.47a4.89,4.89,0,0,0,2.74.85c4.55-.72,4.53,2,4.61,5.33.1,4.18-2.67,3.28-5,3.35a30.84,30.84,0,0,0-3.47,0C93.35,86.62,91.35,84.91,92.4,80.82Z" transform="translate(-31.9 -31.17)"/>
    <path class="a614fa3c-0ee7-46c8-94a6-5e0492092e7d" d="M81.81,88.77c4.32-.23,5.32,1.16,5-7.6.68-4,.26-7.69-6-6.62-1.42.24-2.47-.81-3.44-1.71-1.25-1.15-2.75-.93-4.23-.87-.75,0-1.3.4-1.24,1.18,0,.42.39,1.2.59,1.19,3.11-.07,4.84,3.49,8.14,3,1.62-.24,3.75-.25,3.33,2.26-.37,2.18,2,5.59-2.35,6.25-1.16.18-1.89.52-1.64,1.83C80.1,88.76,81,88.81,81.81,88.77Z" transform="translate(-31.9 -31.17)"/>
    <path class="ff80a956-c4b8-4f13-8f50-dd7352598d66" d="M46.85,36.57a1.63,1.63,0,1,0-.26,3.25c1,.08,1.38-.6,1.44-1.7C48,37.5,47.91,36.62,46.85,36.57Z" transform="translate(-31.9 -31.17)"/>
    <path class="afedded1-d093-46eb-9a3e-2fb915aff700" d="M53.68,38.3a1.53,1.53,0,0,0-1.81-1.71c-1,.06-1.23.89-1.21,1.74a1.42,1.42,0,0,0,1.47,1.54C53,39.67,53.65,39.26,53.68,38.3Z" transform="translate(-31.9 -31.17)"/>
    <path class="be50cf1d-b0ce-41c4-b72b-dd4db7e9e28f" d="M58.88,38.17A1.09,1.09,0,0,0,57.66,37a1.21,1.21,0,1,0,0,2.41A1.11,1.11,0,0,0,58.88,38.17Z" transform="translate(-31.9 -31.17)"/>
    <path class="a92ded27-e93d-49c5-a494-68cb7be3eab0" d="M58.28,83.83H51.51c-5.08,2.58-7.07,6.22-6,11A9.9,9.9,0,0,0,55,102.73a10.24,10.24,0,0,0,9.54-8C65.76,89.28,62.19,86.43,58.28,83.83ZM54.85,99.76c-3.67,0-7.16-3.41-6.79-7.08s1.4-6.8,6.16-6.65c4.15.14,7.61,3,7.6,6.79A7.12,7.12,0,0,1,54.85,99.76Z" transform="translate(-31.9 -31.17)"/>
    <path class="ad6b6843-fe82-458e-98c9-e61ce51b9d2f" d="M58.28,83.83a6.3,6.3,0,0,0-6.77,0A15,15,0,0,1,58.28,83.83Z" transform="translate(-31.9 -31.17)"/>
    <path class="ad6b6843-fe82-458e-98c9-e61ce51b9d2f" d="M58.28,83.83a15,15,0,0,0-6.77,0h6.77Z" transform="translate(-31.9 -31.17)"/>
  </g>
</svg>
