<svg xmlns="http://www.w3.org/2000/svg" width="68.445" height="68.445" viewBox="0 0 68.445 68.445">
  <g id="settings" transform="translate(0 0)">
    <g id="Group_23" data-name="Group 23" transform="translate(0 0)">
      <g id="Group_22" data-name="Group 22">
        <path id="Path_26" data-name="Path 26" d="M65.394,27.613c-1.287-.193-2.609-.378-3.927-.55a.388.388,0,0,1-.33-.276,27.779,27.779,0,0,0-2.625-6.335.39.39,0,0,1,.036-.431c.811-1.054,1.615-2.12,2.39-3.167a3.608,3.608,0,0,0-.353-4.668L56.258,7.86a3.608,3.608,0,0,0-4.668-.353c-1.045.773-2.11,1.577-3.167,2.39a.39.39,0,0,1-.431.037,27.781,27.781,0,0,0-6.335-2.625.388.388,0,0,1-.276-.33c-.172-1.321-.357-2.642-.549-3.927A3.608,3.608,0,0,0,37.282,0H31.163a3.607,3.607,0,0,0-3.55,3.051c-.192,1.285-.377,2.606-.549,3.927a.388.388,0,0,1-.276.33,27.789,27.789,0,0,0-6.335,2.625.391.391,0,0,1-.431-.037c-1.056-.813-2.122-1.617-3.167-2.39a3.608,3.608,0,0,0-4.668.353L7.86,12.187a3.608,3.608,0,0,0-.353,4.668c.776,1.049,1.58,2.114,2.39,3.167a.39.39,0,0,1,.037.431,27.782,27.782,0,0,0-2.625,6.335.388.388,0,0,1-.33.276c-1.318.172-2.639.357-3.927.55A3.608,3.608,0,0,0,0,31.163v6.119a3.608,3.608,0,0,0,3.051,3.55c1.288.193,2.609.378,3.927.549a.388.388,0,0,1,.33.276,27.783,27.783,0,0,0,2.625,6.335.39.39,0,0,1-.037.431c-.812,1.055-1.616,2.12-2.39,3.167a3.608,3.608,0,0,0,.353,4.668l4.327,4.327a3.608,3.608,0,0,0,4.668.353c1.045-.773,2.11-1.577,3.167-2.39a.39.39,0,0,1,.431-.037,27.785,27.785,0,0,0,6.335,2.625.388.388,0,0,1,.276.33c.172,1.321.357,2.642.549,3.927a3.608,3.608,0,0,0,3.55,3.051h6.119a3.608,3.608,0,0,0,3.55-3.052c.192-1.286.377-2.608.549-3.927a.389.389,0,0,1,.276-.33,27.792,27.792,0,0,0,6.335-2.625.392.392,0,0,1,.431.037c1.056.813,2.122,1.617,3.167,2.39a3.608,3.608,0,0,0,4.668-.353l4.327-4.327a3.608,3.608,0,0,0,.353-4.668c-.775-1.047-1.579-2.112-2.39-3.167a.39.39,0,0,1-.036-.431,27.785,27.785,0,0,0,2.625-6.335.389.389,0,0,1,.33-.276c1.319-.172,2.64-.357,3.927-.549a3.608,3.608,0,0,0,3.051-3.55V31.162A3.608,3.608,0,0,0,65.394,27.613Zm-.145,9.669a.392.392,0,0,1-.328.389c-1.268.19-2.569.371-3.868.541a3.577,3.577,0,0,0-3,2.6,24.591,24.591,0,0,1-2.323,5.606,3.58,3.58,0,0,0,.282,3.959c.8,1.038,1.591,2.088,2.353,3.119a.392.392,0,0,1-.043.507L54,58.325a.393.393,0,0,1-.507.043c-1.029-.761-2.078-1.553-3.119-2.353a3.579,3.579,0,0,0-3.958-.283,24.6,24.6,0,0,1-5.606,2.323,3.578,3.578,0,0,0-2.6,3c-.169,1.3-.351,2.6-.541,3.868a.392.392,0,0,1-.389.328H31.163a.392.392,0,0,1-.389-.328c-.189-1.265-.371-2.567-.541-3.867a3.578,3.578,0,0,0-2.6-3,24.584,24.584,0,0,1-5.606-2.323,3.578,3.578,0,0,0-3.958.283c-1.04.8-2.09,1.592-3.119,2.353a.392.392,0,0,1-.507-.043L10.12,54a.392.392,0,0,1-.043-.507c.762-1.03,1.554-2.08,2.353-3.119a3.58,3.58,0,0,0,.283-3.958,24.588,24.588,0,0,1-2.323-5.606,3.578,3.578,0,0,0-3-2.6c-1.3-.169-2.6-.352-3.868-.541a.392.392,0,0,1-.328-.389V31.163a.392.392,0,0,1,.328-.389c1.268-.19,2.569-.372,3.868-.541a3.577,3.577,0,0,0,3-2.6,24.579,24.579,0,0,1,2.323-5.606,3.58,3.58,0,0,0-.282-3.958c-.8-1.037-1.589-2.086-2.353-3.119a.393.393,0,0,1,.043-.507l4.327-4.327a.392.392,0,0,1,.507-.043c1.029.761,2.078,1.553,3.119,2.353a3.58,3.58,0,0,0,3.958.282,24.588,24.588,0,0,1,5.606-2.323,3.578,3.578,0,0,0,2.6-3c.17-1.3.352-2.6.541-3.868a.392.392,0,0,1,.389-.328h6.119a.392.392,0,0,1,.389.328c.189,1.265.371,2.566.541,3.868a3.578,3.578,0,0,0,2.6,3,24.6,24.6,0,0,1,5.606,2.323,3.58,3.58,0,0,0,3.958-.283c1.04-.8,2.09-1.592,3.119-2.353A.392.392,0,0,1,54,10.12l4.327,4.327a.392.392,0,0,1,.043.507c-.763,1.031-1.554,2.08-2.353,3.119a3.58,3.58,0,0,0-.282,3.959,24.588,24.588,0,0,1,2.323,5.606,3.577,3.577,0,0,0,3,2.6c1.3.17,2.6.352,3.868.541a.392.392,0,0,1,.328.389v6.119Z" fill="#81ad40"/>
      </g>
    </g>
    <g id="Group_25" data-name="Group 25" transform="translate(19.366 19.366)">
      <g id="Group_24" data-name="Group 24">
        <path id="Path_27" data-name="Path 27" d="M159.723,144.866a14.857,14.857,0,1,0,14.857,14.857A14.873,14.873,0,0,0,159.723,144.866Zm0,26.517a11.66,11.66,0,1,1,11.66-11.66A11.673,11.673,0,0,1,159.723,171.383Z" transform="translate(-144.866 -144.866)" fill="#81ad40"/>
      </g>
    </g>
  </g>
</svg>
