<svg xmlns="http://www.w3.org/2000/svg" width="54.906" height="66.933" viewBox="0 0 54.906 66.933">
  <g id="shield" transform="translate(0 0)">
    <path id="Path_23" data-name="Path 23" d="M201.705,274.615a1.307,1.307,0,1,0-1.307-1.307A1.308,1.308,0,0,0,201.705,274.615Zm0,0" transform="translate(-174.266 -236.442)" fill="#81ad40"/>
    <path id="Path_24" data-name="Path 24" d="M27.194,66.688a1.307,1.307,0,0,0,1.52,0C42.033,57.174,55.407,53,55.407,33.424V9.188a1.308,1.308,0,0,0-1.2-1.3L50.81,7.6A49.824,49.824,0,0,1,28.647.2a1.307,1.307,0,0,0-1.386,0A49.835,49.835,0,0,1,5.1,7.6l-3.4.283a1.307,1.307,0,0,0-1.2,1.3V33.424c0,20.128,15.252,25.092,26.693,33.265ZM3.115,10.39l2.2-.183A52.44,52.44,0,0,0,27.954,2.84a52.437,52.437,0,0,0,22.639,7.367l2.2.183V33.424c0,17.652-11.762,21.439-24.84,30.6C16.474,56.057,3.115,51.536,3.115,33.424Zm0,0" transform="translate(-0.501 0.001)" fill="#81ad40"/>
    <path id="Path_25" data-name="Path 25" d="M79.348,117.4a1.3,1.3,0,0,0,1.524-.034c11.834-8.191,18.847-10.887,18.847-23.727V76.5A1.307,1.307,0,0,0,98.606,75.2a57.6,57.6,0,0,1-17.9-5.787,1.33,1.33,0,0,0-1.257.029A57.565,57.565,0,0,1,61.614,75.2,1.307,1.307,0,0,0,60.5,76.5V93.642c0,12.961,7.681,16.142,18.847,23.761ZM63.115,77.61a60.138,60.138,0,0,0,15.674-4.925V91.852a1.307,1.307,0,1,0,2.615,0V72.673A60.185,60.185,0,0,0,97.1,77.61V93.642c0,10.627-4.978,12.944-15.7,20.2V102.31a1.307,1.307,0,0,0-2.615,0v11.565c-10.019-6.669-15.674-9.519-15.674-20.233Zm0,0" transform="translate(-52.657 -60.216)" fill="#81ad40"/>
  </g>
</svg>
