<svg xmlns="http://www.w3.org/2000/svg" width="69.316" height="64.984" viewBox="0 0 69.316 64.984">
  <g id="shopping-cart" transform="translate(0 0)">
    <path id="Path_7" data-name="Path 7" d="M387.354,422.708A1.354,1.354,0,1,0,386,421.354,1.354,1.354,0,0,0,387.354,422.708Zm0,0" transform="translate(-333.742 -363.139)" fill="#81ad40"/>
    <path id="Path_8" data-name="Path 8" d="M221.354,422.708A1.354,1.354,0,1,0,220,421.354,1.354,1.354,0,0,0,221.354,422.708Zm0,0" transform="translate(-190.216 -363.139)" fill="#81ad40"/>
    <path id="Path_9" data-name="Path 9" d="M69.029,16.767a1.353,1.353,0,0,0-1.067-.521H19.224L16.138,3.131A4.048,4.048,0,0,0,12.185,0H4.062a4.061,4.061,0,1,0,0,8.123H8.968l10.094,42.9a4.048,4.048,0,0,0,3.954,3.131h2.711a6.769,6.769,0,1,0,10.823,0H48.2a6.769,6.769,0,1,0,10.823,0h0a4.061,4.061,0,1,0,0-8.123H26.232l-1.275-5.415H60.433a4.058,4.058,0,0,0,3.941-3.077l4.9-19.61a1.354,1.354,0,0,0-.246-1.161ZM64.2,27.077H55.551l1.015-8.123h9.661Zm-16,2.708h4.288l-1.015,8.123H44.135V33.846a1.354,1.354,0,0,0-2.708,0v4.061H34.093l-1.015-8.123h4.288a1.354,1.354,0,0,0,0-2.708H32.739l-1.015-8.123h9.7v4.061a1.354,1.354,0,0,0,2.708,0V18.954h9.7l-1.015,8.123H48.2a1.354,1.354,0,0,0,0,2.708ZM24.32,37.907l-1.911-8.123h7.94l1.015,8.123ZM29,18.954l1.015,8.123H21.772l-1.911-8.123Zm6.2,39.261a4.061,4.061,0,1,1-4.061-4.061A4.066,4.066,0,0,1,35.2,58.215Zm22.474,0a4.061,4.061,0,1,1-4.061-4.061A4.066,4.066,0,0,1,57.673,58.215Zm1.354-9.477a1.354,1.354,0,1,1,0,2.708H23.015A1.349,1.349,0,0,1,21.7,50.4L11.112,5.416H4.062a1.354,1.354,0,0,1,0-2.708h8.123A1.349,1.349,0,0,1,13.5,3.752l8.419,35.781,0,.007,2.165,9.2Zm2.72-11.857a1.353,1.353,0,0,1-1.315,1.026H54.2l1.015-8.123h8.308Zm0,0" transform="translate(0 0)" fill="#81ad40"/>
    <path id="Path_10" data-name="Path 10" d="M307.354,200a1.354,1.354,0,1,0,1.354,1.354A1.354,1.354,0,0,0,307.354,200Zm0,0" transform="translate(-264.573 -172.923)" fill="#81ad40"/>
  </g>
</svg>
