<svg xmlns="http://www.w3.org/2000/svg" width="44.049" height="52.585" viewBox="0 0 44.049 52.585">
  <path id="Artboard_1" data-name="Artboard 1" d="M89.479,57.193h0A14.511,14.511,0,0,0,75,42.716h0A14.511,14.511,0,0,0,60.526,57.193h0A14.506,14.506,0,0,0,75,71.669h0A14.511,14.511,0,0,0,89.479,57.193ZM75,70.14h0c-1.482,0-3.092-2.832-3.857-7.319a36.794,36.794,0,0,0,7.713,0c-.782,4.505-2.409,7.337-3.874,7.337Zm0-8.651a34.549,34.549,0,0,1-4.053-.232,35.989,35.989,0,0,1,0-8.153,36.041,36.041,0,0,1,8.159,0,36.909,36.909,0,0,1,0,8.153,34.576,34.576,0,0,1-4.123.249Zm-12.971-4.3c0-1.488,2.826-3.092,7.314-3.857a36.741,36.741,0,0,0,0,7.707C64.869,60.3,62.032,58.687,62.032,57.193ZM74.985,44.25h0c1.488,0,3.092,2.826,3.857,7.314a36.793,36.793,0,0,0-7.713,0C71.893,47.076,73.5,44.25,74.985,44.25Zm5.64,9.1c4.482.764,7.308,2.368,7.314,3.851h0c0,1.488-2.832,3.092-7.314,3.851a36.742,36.742,0,0,0,0-7.707Zm6.949.857a17.947,17.947,0,0,0-7.169-2.432A18.042,18.042,0,0,0,77.973,44.6,13.012,13.012,0,0,1,87.586,54.2ZM71.992,44.6a17.974,17.974,0,0,0-2.438,7.175A17.8,17.8,0,0,0,62.385,54.2,13.017,13.017,0,0,1,71.992,44.6ZM62.385,60.2a18,18,0,0,0,7.169,2.438A17.888,17.888,0,0,0,71.992,69.8,13,13,0,0,1,62.385,60.2Zm15.6,9.6a17.882,17.882,0,0,0,2.432-7.169,17.768,17.768,0,0,0,7.169-2.438A12.971,12.971,0,0,1,77.985,69.8Zm-3,4.187c-.5,0-1-.035-1.5-.075v3.37H47.9V36.925H73.486v3.521c.5-.041.99-.075,1.5-.075.33,0,.649.035.973.046V34.87A3.561,3.561,0,0,0,72.4,31.32H48.98a3.561,3.561,0,0,0-3.55,3.55V80.355a3.561,3.561,0,0,0,3.55,3.55H72.4a3.561,3.561,0,0,0,3.561-3.55v-6.37ZM56.948,33.879h7.493a.434.434,0,0,1,.434.434.428.428,0,0,1-.434.429H56.948a.434.434,0,0,1,0-.863Zm3.747,48.213a1.772,1.772,0,1,1,1.778-1.737A1.772,1.772,0,0,1,60.694,82.092Z" transform="translate(-45.43 -31.32)" fill="#ff3122"/>
</svg>
